# xmcd
#
# Track frame offsets: 
#        150
#        19680
#        39495
#        54083
#        91561
#        119806
#        134919
#        161754
#        175434
#        198159
#        215304
#        261429
#
# Disc length: 3719 seconds
#
# Revision: 0
# Processed by: cddbd v1.5.2PL0 Copyright (c) Steve Scherf et al.
# Submitted via: ExactAudioCopy v1.0b4
#
DISCID=a90e850c
DTITLE=Jimmy Bowskill - Live
DYEAR=2009
DGENRE=Blues Rock
TTITLE0=Far From Reality
TTITLE1=Rattlesnake Shake
TTITLE2=Walk In My Shadow
TTITLE3=Loser
TTITLE4=Bemine
TTITLE5=Brokedown Engine
TTITLE6=Drifting Haze
TTITLE7=Diamond Ring
TTITLE8=Ride A Pony
TTITLE9=The Karadage
TTITLE10=3 O'clock
TTITLE11=Link Into Your Chain
EXTD=
EXTT0=
EXTT1=
EXTT2=
EXTT3=
EXTT4=
EXTT5=
EXTT6=
EXTT7=
EXTT8=
EXTT9=
EXTT10=
EXTT11=
PLAYORDER=
